<?xml version="1.0"?>
<svg width="26" height="52" xmlns="http://www.w3.org/2000/svg" xmlns:svg="http://www.w3.org/2000/svg">
 <g class="layer">
  <title>Layer 1</title>
  <path d="m20.6,36.7l-4.6,0a0.9,0.9 0 0 1 -0.8,-0.8l0,-4.5c0,-0.2 0.2,-0.4 0.4,-0.4l1.4,0c0.3,0 0.5,0.2 0.5,0.4l0,3l3,0c0.2,0 0.4,0.2 0.4,0.5l0,1.4c0,0.2 -0.2,0.4 -0.4,0.4l0.1,0zm-9.9,-0.8l0,-4.5c0,-0.2 -0.2,-0.4 -0.4,-0.4l-1.4,0c-0.3,0 -0.5,0.2 -0.5,0.4l0,3l-3,0c-0.2,0 -0.4,0.2 -0.4,0.5l0,1.4c0,0.2 0.2,0.4 0.4,0.4l4.5,0c0.4,0 0.8,-0.4 0.8,-0.8zm0,10.7l0,-4.6c0,-0.4 -0.4,-0.8 -0.8,-0.8l-4.5,0c-0.2,0 -0.4,0.2 -0.4,0.4l0,1.4c0,0.3 0.2,0.5 0.4,0.5l3,0l0,3c0,0.2 0.2,0.4 0.5,0.4l1.4,0c0.2,0 0.4,-0.2 0.4,-0.4l0,0.1zm6.9,0l0,-3l3,0c0.2,0 0.4,-0.2 0.4,-0.5l0,-1.4c0,-0.2 -0.2,-0.4 -0.4,-0.4l-4.6,0c-0.4,0 -0.8,0.4 -0.8,0.8l0,4.5c0,0.2 0.2,0.4 0.4,0.4l1.5,0c0.3,0 0.5,-0.2 0.5,-0.4zm-12.6,-36.3l0,-4.4c0,-0.5 0.4,-0.9 0.9,-0.9l4.4,0c0.2,0 0.4,0.2 0.4,0.4l0,1.6c0,0.2 -0.2,0.4 -0.4,0.4l-3,0l0,3c0,0.2 -0.2,0.4 -0.4,0.4l-1.5,0a0.4,0.4 0 0 1 -0.4,-0.4l0,-0.1zm10.3,-4.9l0,1.6c0,0.2 0.2,0.4 0.4,0.4l3,0l0,3c0,0.2 0.2,0.4 0.4,0.4l1.5,0c0.2,0 0.4,-0.2 0.4,-0.4l0,-4.5c0,-0.5 -0.4,-0.9 -0.9,-0.9l-4.4,0c-0.2,0 -0.4,0.2 -0.4,0.4zm5.3,9.9l-1.6,0c-0.2,0 -0.4,0.2 -0.4,0.4l0,3l-3,0c-0.2,0 -0.4,0.2 -0.4,0.4l0,1.5c0,0.2 0.2,0.4 0.4,0.4l4.4,0c0.5,0 0.9,-0.4 0.9,-0.9l0,-4.4c0,-0.2 -0.2,-0.4 -0.4,-0.4l0.1,0zm-9.9,5.3l0,-1.6c0,-0.2 -0.2,-0.4 -0.4,-0.4l-3,0l0,-3c0,-0.2 -0.2,-0.4 -0.4,-0.4l-1.5,0c-0.2,0 -0.4,0.2 -0.4,0.4l0,4.4c0,0.5 0.4,0.9 0.9,0.9l4.4,0c0.2,0 0.4,-0.2 0.4,-0.4l0,0.1z" fill="#ffffff" id="svg_1"/>
 </g>

</svg>